<svg width="512" height="512" viewBox="0 0 512 512" fill="none" xmlns="http://www.w3.org/2000/svg">
<path d="M256 16C123.452 16 16 123.452 16 256C16 388.548 123.452 496 256 496C388.548 496 496 388.548 496 256C496 123.452 388.548 16 256 16ZM403.078 403.078C366.608 439.439 317.908 460.919 266.466 463.334C215.023 465.749 164.525 448.925 124.809 416.141C85.0938 383.357 59.0066 336.96 51.6309 285.992C44.2551 235.024 56.1191 183.136 84.9112 140.438C113.703 97.7394 157.361 67.2899 207.377 55.0222C257.394 42.7546 310.186 49.5478 355.467 74.078C400.748 98.6082 435.275 139.118 452.32 187.715C469.364 236.311 467.706 289.513 447.667 336.953C437.223 361.673 422.08 384.13 403.078 403.078Z" fill="#373737"/>
<path d="M152.001 200H192.001V240H152.001V200ZM320.001 200H360.001V240H320.001V200ZM338.29 307.2C332.1 322.818 321.349 336.209 307.438 345.627C293.527 355.046 277.1 360.054 260.301 360H251.701C234.901 360.055 218.474 355.046 204.562 345.628C190.65 336.21 179.898 322.819 173.709 307.2L172.43 304H137.969L144.001 319.081C152.611 340.606 167.473 359.057 186.67 372.055C205.867 385.052 228.518 391.999 251.701 392H260.301C283.484 391.999 306.135 385.052 325.332 372.055C344.529 359.057 359.391 340.606 368.001 319.081L374.033 304H339.569L338.29 307.2Z" fill="#373737"/>
</svg>
