<svg width="345" height="345" viewBox="0 0 345 345" fill="none" xmlns="http://www.w3.org/2000/svg">
<circle cx="172.5" cy="172.5" r="172.5" fill="#373737"/>
<path d="M103 168C100.239 168 98 170.239 98 173C98 175.761 100.239 178 103 178V168ZM245.536 176.536C247.488 174.583 247.488 171.417 245.536 169.464L213.716 137.645C211.763 135.692 208.597 135.692 206.645 137.645C204.692 139.597 204.692 142.763 206.645 144.716L234.929 173L206.645 201.284C204.692 203.237 204.692 206.403 206.645 208.355C208.597 210.308 211.763 210.308 213.716 208.355L245.536 176.536ZM103 178H242V168H103V178Z" fill="#F9F5E7"/>
</svg>
